Coordinates
version=1
nRows=7
nColumns=40
inDegrees=yes

Units are S.I. units (second, meters, Newtons, ...)
Angles are in degrees.

endheader
time	pelvis_tilt	pelvis_list	pelvis_rotation	pelvis_tx	pelvis_ty	pelvis_tz	hip_flexion_r	hip_adduction_r	hip_rotation_r	knee_angle_r	knee_angle_r_beta	ankle_angle_r	subtalar_angle_r	mtp_angle_r	hip_flexion_l	hip_adduction_l	hip_rotation_l	knee_angle_l	knee_angle_l_beta	ankle_angle_l	subtalar_angle_l	mtp_angle_l	lumbar_extension	lumbar_bending	lumbar_rotation	arm_flex_r	arm_add_r	arm_rot_r	elbow_flex_r	pro_sup_r	wrist_flex_r	wrist_dev_r	arm_flex_l	arm_add_l	arm_rot_l	elbow_flex_l	pro_sup_l	wrist_flex_l	wrist_dev_l
     56.10000000	     -3.37384761	     -4.75170228	      0.23212427	      1.22303968	      0.91213872	      0.54865644	     17.97494885	      6.53314788	     -4.64568933	     30.16349368	     30.16349368	     17.08904714	     -8.71958000	     -2.34854112	     31.25210128	    -13.84879041	      6.78013338	     67.07554017	     67.07554017	      5.20210467	    -19.30629201	     17.53529239	    -12.49553463	      5.12531210	      1.10297046	     12.91910837	    -13.81283186	     -8.67013663	     33.42593678	     45.75180969	      0.00000000	      0.00000000	     10.29577396	     -7.53871469	      2.77676336	     26.80916780	     45.21280930	      0.00000000	      0.00000000
     56.12185714	     -3.21520163	     -4.81136978	      1.16276641	      1.22182871	      0.91033762	      0.54992951	     18.05452498	      6.67940060	     -4.90057362	     30.97345149	     30.97345149	     17.51604979	     -9.90602784	     -2.23434346	     32.52634388	    -13.81880598	      7.10485265	     66.80287581	     66.80287581	      6.51865748	    -19.36623829	     17.69266089	    -12.54046963	      5.02697947	      1.11078393	     15.97420474	    -14.01908483	     -8.90186441	     35.39270336	     45.71324126	      0.00000000	      0.00000000	      7.39787846	     -7.24183161	      3.01325624	     25.51540665	     45.13727662	      0.00000000	      0.00000000
     56.14371429	     -3.04221253	     -4.86851215	      2.13032218	      1.22051093	      0.90884503	      0.55117235	     18.02549856	      6.82422137	     -5.19175680	     31.60419669	     31.60419669	     17.89906230	    -11.01524271	     -2.00670719	     33.72740828	    -13.76218257	      7.35584743	     66.11549621	     66.11549621	      7.90944855	    -19.40138069	     18.12122076	    -12.65283697	      4.93323080	      1.13278001	     19.18682902	    -14.29656708	     -9.02172741	     37.57003630	     45.66019417	      0.00000000	      0.00000000	      4.44592931	     -7.05210353	      3.33944208	     24.29316389	     45.04143914	      0.00000000	      0.00000000
     56.16557143	     -2.90317876	     -4.90208097	      3.12144201	      1.21903151	      0.90782465	      0.55225431	     17.91865175	      6.91332402	     -5.58907577	     32.01743890	     32.01743890	     18.26569568	    -11.89909391	     -1.64633003	     34.84507994	    -13.63234927	      7.52995017	     64.89168786	     64.89168786	      9.22610204	    -19.42364237	     18.78913654	    -12.77874511	      4.84328091	      1.16258794	     22.48903220	    -14.63873560	     -8.98373101	     39.96368751	     45.59183878	      0.00000000	      0.00000000	      1.49907646	     -6.97304762	      3.81275844	     23.25117046	     44.91488159	      0.00000000	      0.00000000
     56.18742857	     -2.84575254	     -4.88481443	      4.10101709	      1.21742664	      0.90741618	      0.55306976	     17.73628598	      6.89331453	     -6.11165323	     32.12065145	     32.12065145	     18.48909894	    -12.45150622	     -1.36455050	     35.78091207	    -13.40136283	      7.56986450	     62.97510480	     62.97510480	     10.27609502	    -19.43028126	     19.04506171	    -12.87261236	      4.70744079	      1.39618752	     25.76292045	    -15.13848070	     -8.97179457	     42.11839206	     45.53339266	      0.00000000	      0.00000000	     -1.15390600	     -6.92853680	      4.19021545	     22.31271978	     44.80101813	      0.00000000	      0.00000000
     56.20928571	     -2.98962109	     -4.80916938	      5.03868271	      1.21563121	      0.90748589	      0.55359973	     17.60428214	      6.75347993	     -6.70409324	     31.89665089	     31.89665089	     18.57782220	    -12.76955705	     -1.20862824	     36.65294828	    -13.03960686	      7.49846811	     60.40413376	     60.40413376	     10.89441840	    -19.41070531	     19.12288446	    -12.74555155	      4.49368383	      2.31086816	     28.86788591	    -16.29038985	     -9.15080907	     43.59857759	     45.50839848	      0.00000000	      0.00000000	     -3.27892965	     -6.87671966	      4.30113106	     21.58803940	     44.74014130	      0.00000000	      0.00000000
     56.23114286	     -3.02383581	     -4.68605362	      6.01203414	      1.21377254	      0.90849228	      0.55376213	     17.16177439	      6.52786568	     -7.41805289	     31.34264893	     31.34264893	     18.60331749	    -12.74911784	     -0.87664075	     37.01486189	    -12.52708710	      7.44172612	     57.08430494	     57.08430494	     11.13336451	    -19.34857463	     18.87679890	    -12.86731209	      4.31460204	      1.80355847	     32.37975185	    -16.08863015	     -8.90364273	     46.55847238	     45.40954063	      0.00000000	      0.00000000	     -5.89881830	     -7.01780473	      4.73265858	     20.92125632	     44.59836752	      0.00000000	      0.00000000
